<?xml version="1.0" encoding="UTF-8"?>
<svg id="Layer_1" data-name="Layer 1" xmlns="http://www.w3.org/2000/svg" viewBox="0 0 2000 2000">
  <path d="M899.43,64.61v1870.78c-65.8-37.99-131.6-75.98-197.41-113.97-102.09-350.99-214.87-707.14-386.55-1031.35.34,13.36.57,26.74,1.45,40.09,1.51,17.11,2.93,34.27,2.9,51.46v719.14c-60.06-34.67-120.11-69.35-180.17-104.02V503.27c83.12-47.99,166.25-95.98,249.37-143.98,146.8,245.79,246.46,519.8,336.02,790.53-2.13-37.09-4.27-74.25-4.34-111.41V167.8c59.58-34.4,119.15-68.79,178.73-103.19Z"/>
  <path d="M1860.35,503.27v993.45c-75.73,43.72-151.47,87.45-227.2,131.17v-517.95c-102.76,10.39-205.51,20.78-308.27,31.16v664.77c-75.74,43.73-151.47,87.45-227.21,131.18V62.94c75.74,43.73,151.47,87.45,227.21,131.18v628.17l308.27,39.25v-489.44c75.73,43.72,151.47,87.45,227.2,131.17Z"/>
</svg>