<svg width="4967" height="1300" viewBox="0 0 4967 1300" fill="none" xmlns="http://www.w3.org/2000/svg">
<path d="M2144.16 862.207L2090.56 1027.38C2089.09 1032.88 2083.97 1036.61 2078.28 1036.32H1948.99C1941.18 1036.32 1938.97 1031.85 1940.05 1025.17L2163.23 381.245C2170.83 359.355 2174.62 336.324 2174.43 313.152C2174.21 309.181 2177.16 305.738 2181.11 305.341H2359.69C2365.08 305.341 2367.5 306.472 2368.63 312.021L2621.82 1026.3C2624.03 1031.68 2622.95 1036.32 2616.43 1036.32H2471.36C2465.91 1037.07 2460.71 1033.76 2459.08 1028.51L2402.19 862.207H2144.16ZM2184.29 722.734H2360.66L2343.69 668.087C2320.3 593.775 2289.15 497.057 2272.48 434.793H2271.35C2253.51 509.566 2213.33 632.339 2184.29 722.734ZM2639.6 763.784C2639.54 604.218 2758.92 470.294 2963.19 470.294C2972.08 470.294 2983.28 471.426 3000.04 472.503V252.655C2999.79 250.518 3000.54 248.386 3002.06 246.865C3003.07 245.851 3004.36 245.183 3005.73 244.922L3148.45 244.844C3153.83 244.844 3155.18 247.053 3155.18 251.524V911.068C3154.91 938.305 3156.4 965.531 3159.65 992.575C3159.65 996.884 3158.93 999.298 3155.22 1001.22L3151.84 1002.59C3082.32 1032.14 3007.54 1047.33 2932 1047.25C2766.84 1047.25 2639.6 953.518 2639.6 763.784ZM3000.04 605.295C2986.7 601.016 2972.7 599.191 2958.72 599.908C2916.11 596.79 2874.21 612.126 2843.69 642.015C2815.7 669.414 2799.74 706.622 2798.98 745.497L2799.16 756.134C2799.16 866.624 2862.78 914.623 2947.57 914.623C2965.31 915.369 2983.05 913.11 3000.04 907.943V605.295ZM3793.89 744.212L3794.28 755.919C3794.28 931.161 3680.46 1047.2 3519.55 1047.2C3328.69 1047.2 3243.9 903.256 3243.9 759.259C3239.44 683.274 3266.9 608.876 3319.65 554.006C3372.4 499.136 3445.66 468.773 3521.76 470.241C3696.81 470.241 3789.26 598.407 3793.89 744.212ZM3401.25 756.889C3401.25 855.096 3446.99 917.586 3521.76 917.586C3586.4 917.586 3635.59 861.776 3635.59 759.097C3635.59 672.042 3599.87 599.531 3515.08 599.531C3450.44 599.531 3401.25 657.55 3401.25 756.889ZM3892.65 244.844L4028.78 244.79C4037.72 244.79 4039.93 245.921 4039.93 253.733V482.523C4064.38 475.964 4089.44 472.009 4114.69 470.713L4133.66 470.241C4205.34 466.682 4275.21 493.448 4326.17 543.986C4373.94 591.366 4400.95 655.539 4401.7 722.462L4401.5 735.879C4401.5 944.575 4236.34 1047.25 4066.76 1047.25C4007.38 1047.66 3948.29 1039.02 3891.52 1021.61C3887.48 1019.33 3884.94 1015.09 3884.84 1010.46V252.655C3884.84 247.268 3887.05 244.844 3892.65 244.844ZM4115.38 601.773L4105.81 601.901C4083.55 601.643 4061.37 604.656 4039.98 610.844V913.276C4049.01 915.368 4058.19 916.733 4067.42 917.36L4081.3 917.748C4125.91 920.27 4169.41 903.236 4200.45 871.089C4231.49 838.942 4246.99 794.87 4242.91 750.37C4248.13 711.614 4235.77 672.552 4209.22 643.843C4184.88 617.526 4150.94 602.427 4115.38 601.773ZM4619.56 799.393C4624.95 863.015 4669.77 915.485 4779.12 915.485C4826.15 916.354 4872.86 907.61 4916.38 889.789C4919.78 887.58 4923.12 888.657 4923.12 895.176V1001.19C4923.12 1009.01 4920.91 1012.35 4915.31 1014.61C4867.06 1036.21 4814.86 1047.33 4762.13 1047.34L4744.54 1046.93C4534.77 1046.93 4461.08 902.987 4461.08 764.592C4461.08 614.425 4551.26 477.01 4718.14 470.233L4731.13 469.971C4795.25 467.622 4857.39 492.461 4902.23 538.37C4947.07 584.278 4970.44 646.986 4966.59 711.044C4967.41 736.088 4965.61 761.15 4961.2 785.817C4960.86 790.61 4957.05 794.423 4952.26 794.76C4923.6 797.479 4894.85 798.998 4866.08 799.315L4619.56 799.393ZM4764.63 691.166C4783.26 691.861 4801.92 691.122 4820.44 688.957V681.146C4819.77 656.797 4809.35 633.738 4791.51 617.154C4773.67 600.569 4749.91 591.851 4725.58 592.959C4669.46 592.073 4622.43 635.183 4618.43 691.166H4764.63Z" fill="white"/>
<path d="M730.629 476.705L1074.69 1293.07H849.196L746.251 1033.09H494.466L730.629 476.705ZM1460.99 0V1292.91L920.842 0H1460.99ZM540.363 0L0 1292.91V0H540.363Z" fill="white"/>
</svg>
