<svg width="4718" height="1300" viewBox="0 0 4718 1300" fill="none" xmlns="http://www.w3.org/2000/svg">
<path d="M1140.45 1.0835V1002.82L1269.13 1003.31V526.502H1580.03V400.303H1269.13V127.282H1673.84V1.0835H1140.45ZM1906.16 204.376C1952.82 204.376 1990.15 166.566 1990.15 120.407C1990.15 74.2492 1952.33 36.4388 1906.16 36.4388C1859.5 36.4388 1822.17 74.2492 1822.17 120.407C1822.17 166.566 1859.99 204.376 1906.16 204.376ZM1840.83 330.575V1002.82H1969.52V330.575H1840.83Z" fill="white"/>
<path fill-rule="evenodd" clip-rule="evenodd" d="M2447.41 310.933C2276 310.933 2156.65 455.791 2156.65 627.657C2156.65 799.523 2276 944.381 2447.41 944.381C2525.99 944.381 2590.33 913.937 2637.48 864.832V953.711C2637.48 1065.18 2550.06 1157.99 2435.62 1157.99C2394.36 1157.99 2353.6 1142.27 2321.18 1119.68L2256.35 1231.64C2307.92 1265.03 2369.31 1284.18 2435.13 1284.18C2617.84 1284.18 2765.67 1136.38 2765.67 953.711V330.575H2637.48V390.482C2590.33 341.378 2525.99 310.933 2447.41 310.933ZM2285.82 627.657C2285.82 521.1 2367.35 437.132 2461.65 437.132C2555.95 437.132 2637.48 521.1 2637.48 627.657C2637.48 734.214 2555.95 818.183 2461.65 818.183C2367.35 818.183 2285.82 734.214 2285.82 627.657Z" fill="white"/>
<path d="M3230.79 437.132C3154.67 437.132 3092.78 501.95 3092.78 578.062V1002.82H2964.1V330.575H3092.78V391.956C3130.6 343.342 3186.1 310.933 3258.79 310.933C3349.16 310.933 3418.41 355.618 3458.69 424.365C3503.38 358.073 3576.07 310.933 3663.99 310.933C3810.84 310.933 3902.2 429.275 3902.69 575.607V1002.82H3774.01V577.571C3774.01 501.459 3712.12 436.641 3635.99 436.641C3559.87 436.641 3497.98 501.459 3497.98 577.571V1002.82H3369.3V577.571C3368.81 501.459 3306.92 437.132 3230.79 437.132Z" fill="white"/>
<path fill-rule="evenodd" clip-rule="evenodd" d="M4589.32 406.687C4531.85 347.27 4453.27 310.933 4362.41 310.933C4170.86 310.933 4034.32 473.469 4034.32 666.941C4034.32 860.413 4170.37 1022.95 4362.41 1022.95C4453.27 1022.95 4531.85 986.12 4589.32 927.195V1002.82H4718V330.575H4589.32V406.687ZM4163.49 666.941C4163.49 538.778 4261.72 437.132 4376.65 437.132C4491.09 437.132 4589.81 538.287 4589.81 666.941C4589.81 795.104 4491.58 896.75 4376.65 896.75C4261.72 896.259 4163.49 795.104 4163.49 666.941Z" fill="white"/>
<path d="M432.349 619.87C432.349 510.993 520.882 422.279 630.538 422.279C739.745 422.279 828.728 510.545 828.728 619.87C828.728 728.746 740.194 817.46 630.538 817.46C521.332 817.46 432.349 728.746 432.349 619.87Z" stroke="white" stroke-width="50"/>
<path d="M37.1738 1015.05C37.1738 906.174 125.708 817.46 235.364 817.46H433.553V1015.05C433.553 1123.93 345.02 1212.64 235.364 1212.64C125.708 1212.64 37.1738 1124.37 37.1738 1015.05Z" stroke="white" stroke-width="50"/>
<path d="M432.349 26.343V422.279H630.538C739.745 422.279 828.728 333.744 828.728 224.086C828.728 114.878 740.194 25.8936 630.538 25.8936H432.349V26.343Z" stroke="white" stroke-width="50"/>
<path d="M37.1738 224.689C37.1738 333.565 125.708 422.279 235.364 422.279H433.553V27.0986H235.364C125.708 27.0986 37.1738 115.365 37.1738 224.689Z" stroke="white" stroke-width="50"/>
<path d="M37.1738 619.87C37.1738 728.746 125.708 817.46 235.364 817.46H433.553V422.279H235.364C125.708 422.279 37.1738 510.993 37.1738 619.87Z" stroke="white" stroke-width="50"/>
</svg>
