<svg width="4046" height="1300" viewBox="0 0 4046 1300" fill="none" xmlns="http://www.w3.org/2000/svg">
<path fill-rule="evenodd" clip-rule="evenodd" d="M442.186 433.333H884.372V0H8.84375V4.42178L442.186 433.333Z" fill="white"/>
<path fill-rule="evenodd" clip-rule="evenodd" d="M442.186 433.333H0V866.666H875.528V862.244L442.186 433.333Z" fill="white"/>
<path fill-rule="evenodd" clip-rule="evenodd" d="M4.42188 862.244H442.186V1300L4.42188 862.244Z" fill="white"/>
<path d="M1485.74 862.244V623.469H1746.63V512.925H1485.74V353.741H1768.74V238.775H1357.51V857.823H1485.74V862.244Z" fill="white"/>
<path d="M2095.96 411.224C2087.12 406.803 2069.43 402.381 2047.32 402.381C2003.1 402.381 1967.73 424.49 1945.62 455.442V411.224H1821.81V862.245H1945.62V583.673C1954.46 543.877 1989.84 521.769 2029.63 521.769C2051.74 521.769 2073.85 526.19 2091.54 535.034V411.224H2095.96Z" fill="white"/>
<path d="M2511.62 862.245V574.83C2511.62 468.707 2440.87 402.381 2321.48 402.381C2219.77 402.381 2144.6 464.286 2131.34 548.299H2250.73C2259.57 521.769 2281.68 504.082 2317.05 504.082C2365.69 504.082 2392.23 535.034 2392.23 574.83V605.782C2374.54 592.517 2330.32 579.252 2290.52 579.252C2193.24 579.252 2118.07 636.735 2118.07 725.17C2118.07 818.027 2193.24 871.088 2286.1 871.088C2334.74 871.088 2378.96 853.401 2396.65 840.136V862.245H2511.62ZM2392.23 738.435C2378.96 760.544 2348.01 778.231 2312.63 778.231C2272.84 778.231 2233.04 760.544 2233.04 720.748C2233.04 680.952 2272.84 663.265 2312.63 663.265C2348.01 663.265 2383.38 676.53 2392.23 703.061V738.435Z" fill="white"/>
<path d="M2953.8 459.864C2927.27 424.49 2887.47 402.381 2834.41 402.381C2785.77 402.381 2741.55 420.068 2719.44 451.02V415.646H2595.63V866.666H2719.44V574.83C2728.29 535.034 2759.24 517.347 2790.19 517.347C2834.41 517.347 2852.1 548.299 2852.1 596.939V866.666H2975.91V574.83C2984.75 535.034 3011.29 517.347 3046.66 517.347C3090.88 517.347 3112.99 548.299 3112.99 596.939V866.666H3236.8V570.408C3236.8 468.707 3179.32 402.381 3086.46 402.381C3028.97 402.381 2984.75 428.912 2953.8 459.864Z" fill="white"/>
<path d="M3594.97 716.326C3586.13 756.122 3555.17 773.809 3510.96 773.809C3453.47 773.809 3418.1 734.013 3413.67 667.687H3714.36V627.891C3714.36 495.238 3643.61 402.381 3510.96 402.381C3387.14 402.381 3294.28 504.082 3294.28 636.735C3294.28 773.809 3382.72 871.088 3510.96 871.088C3625.92 871.088 3692.25 809.183 3709.94 711.905H3594.97V716.326ZM3510.96 504.082C3564.02 504.082 3590.55 539.456 3590.55 588.095H3418.1C3431.36 535.034 3462.31 504.082 3510.96 504.082Z" fill="white"/>
<path d="M4046 411.224C4037.16 406.803 4019.47 402.381 3997.36 402.381C3953.14 402.381 3917.77 424.49 3895.66 455.442V411.224H3771.85V862.245H3895.66V583.673C3904.5 543.877 3939.88 521.769 3979.67 521.769C4001.78 521.769 4023.89 526.19 4041.58 535.034V411.224H4046Z" fill="white"/>
</svg>
