<svg width="3541" height="1300" viewBox="0 0 3541 1300" fill="none" xmlns="http://www.w3.org/2000/svg">
<g clip-path="url(#clip0_129_721)">
<path d="M2681.54 659.384V945.398H2798.72V676.92C2798.72 557.346 2961.52 557.152 2961.52 557.152V440.787L2949.63 441.52C2933.72 442.67 2904.64 445.367 2880.04 450.903L2865.52 454.371C2769.09 478.818 2681.54 530.573 2681.54 659.384ZM1798.17 435.003C1843.82 435.003 1900.86 460.825 1931.92 506.244C1964.07 464.939 2016.95 437.06 2082.28 436.001C2165.28 434.938 2267.9 486.586 2267.9 641.492V945.043H2150.69V641.492C2150.69 589.848 2113.34 552.718 2057.43 552.718C2001.51 552.718 1964.13 589.848 1964.13 641.492V945.043H1846.95V641.492C1846.95 589.848 1809.63 552.718 1753.66 552.718C1697.68 552.718 1659.3 589.848 1659.3 641.492V945.043H1536.05V450.389H1659.3V500.077C1690.67 462.066 1735.84 437.809 1788.81 435.231L1798.17 435.003ZM2537.38 456.686V945.402H2418.19V456.686H2537.38ZM2477.77 378.928C2514.51 378.928 2544.31 349.291 2544.31 312.732C2544.31 276.173 2514.51 246.536 2477.77 246.536C2441.03 246.536 2411.24 276.173 2411.24 312.732C2411.24 349.291 2441.03 378.928 2477.77 378.928ZM3279.75 433.944C3135.45 433.944 3018.49 550.309 3018.49 693.879C3018.49 837.448 3135.45 953.813 3279.75 953.813C3424.05 953.813 3541 837.448 3541 693.879C3541 550.309 3424.05 433.944 3279.75 433.944ZM3279.75 836.934C3198.08 836.934 3131.83 771.061 3131.83 689.768C3131.83 608.476 3198.04 542.602 3279.75 542.602C3361.45 542.602 3427.66 608.476 3427.66 689.768C3427.66 771.061 3361.45 836.934 3279.75 836.934Z" fill="white"/>
<path d="M970.137 0C1148.73 0 1293.52 144.758 1293.52 323.326V969.979C1293.52 1148.55 1148.73 1293.31 970.137 1293.31H323.379C144.782 1293.31 0 1148.55 0 969.979V323.326C0.000198693 144.758 144.782 6.37236e-05 323.379 0H970.137ZM390.273 513.972L272.852 1048.79H390.273L615.334 475.767L507.697 1048.79H625.116L840.39 437.562L742.539 1048.79H859.962L1075.24 380.229L859.962 246.536H742.539L840.39 418.433L625.116 246.536H507.697L615.334 456.638L390.273 246.536H272.852L390.273 513.972Z" fill="white"/>
</g>
<defs>
<clipPath id="clip0_129_721">
<rect width="3541" height="1300" fill="white"/>
</clipPath>
</defs>
</svg>
