<svg width="4073" height="1300" viewBox="0 0 4073 1300" fill="none" xmlns="http://www.w3.org/2000/svg">
<g clip-path="url(#clip0_129_650)">
<path d="M1227.53 552.46V737.011C1204.45 777.54 1163.05 804.307 1116.56 808.534C1074.19 810.918 1037.99 778.407 1035.61 736.144C1035.39 732.026 1035.5 727.8 1035.93 723.682C1035.93 650.75 1099.76 611.954 1155.25 586.163L1227.53 552.46ZM1346.09 805.174C1321.17 805.174 1316.18 786.752 1316.18 754.892V438.457C1316.18 330.197 1255.17 265.827 1152.76 265.827C1030.73 265.827 975.243 359.673 974.268 452.761V456.554H1056.09V452.761C1055.01 421.443 1066.17 390.992 1087.41 368.018C1103.66 351.329 1126.1 342.009 1149.4 342.226C1198.27 342.226 1227.53 380.372 1227.53 444.309V474.002L1130.11 520.166C1019.68 571.858 947.283 613.905 947.283 722.815C947.283 818.504 1007.43 882.766 1097.05 882.766C1151.13 881.14 1201.63 855.024 1234.36 811.893C1244.22 854.915 1283.45 884.716 1327.56 882.766C1344.79 882.657 1362.02 879.081 1377.96 872.362L1380.34 871.387V794.121L1374.7 797.155C1366.14 802.573 1356.28 805.391 1346.09 805.174Z" fill="white"/>
<path d="M1801.48 89.1868H1715.32L1712.18 277.639H1633.17V358.048H1712.07V747.197C1712.07 834.542 1752.92 882.657 1827.27 882.657C1858.26 882.224 1888.61 873.554 1915.27 857.733L1917.11 856.649V775.481L1911.04 780.575C1893.81 795.529 1872.03 804.199 1849.27 805.066C1809.82 805.066 1801.48 772.23 1801.48 744.705V358.265H1928.6V277.747H1801.48V89.1868Z" fill="white"/>
<path d="M764.242 731.809C730.539 780.792 691.741 807.667 654.895 807.667C606.669 807.667 589.546 760.418 589.546 716.096V277.639H500.897V720.322C500.897 823.597 547.498 882.766 628.777 882.766C683.288 882.441 734.332 856.107 765.976 811.893L767.494 871.821H852.891V277.639H764.242V731.809Z" fill="white"/>
<mask id="mask0_129_650" style="mask-type:luminance" maskUnits="userSpaceOnUse" x="0" y="249" width="389" height="1051">
<path d="M0 249.68H388.407V1299.98H0V249.68Z" fill="white"/>
</mask>
<g mask="url(#mask0_129_650)">
<path d="M295.748 413.749V738.745C271.148 783.392 241.237 804.091 201.681 804.091C128.421 804.091 91.358 726.824 91.358 574.35C91.358 427.729 133.081 343.635 205.908 343.635C247.956 344.935 284.261 373.328 295.748 413.749ZM306.152 331.606C283.286 289.668 238.419 264.418 190.735 266.694C139.042 267.561 90.9245 293.461 61.5555 336.049C20.6991 390.775 0 471.184 0 575.109C0 802.573 91.8998 883.633 178.056 883.633C223.897 884.933 267.572 864.343 295.748 828.148V1299.98H385.372V277.639H308.536L306.152 331.606Z" fill="white"/>
</g>
<path d="M1452.19 -0.108398H1540.84V871.821H1452.19V-0.108398Z" fill="white"/>
<path d="M2350.71 277.639H2439.36V871.821H2350.71V277.639Z" fill="white"/>
<path d="M2351.57 88.4282H2439.35V191.269H2351.57V88.4282Z" fill="white"/>
<path d="M2105.57 346.994L2101.02 277.639H2016.92V872.688H2105.57V444.417C2145.77 362.924 2197.68 351.654 2247.54 351.546L2268.45 353.28V266.694H2244.39C2181.32 266.694 2146.53 286.417 2105.57 346.994Z" fill="white"/>
<path d="M3164.37 518.866L3162.09 522.009L3163.82 518.649C3108.23 489.932 3068.78 465.766 3068.78 415.7C3067.59 376.687 3098.26 344.177 3137.16 342.985C3139.87 342.876 3142.58 342.985 3145.29 343.201C3167.73 342.334 3189.51 351.329 3204.9 367.693C3223.75 391.317 3231.99 421.66 3227.55 451.569L3227.11 455.796H3309.26L3309.37 452.111C3313.92 401.72 3297.45 351.762 3263.96 313.725C3232.97 282.299 3190.27 265.176 3146.05 266.585C3050.36 266.585 2983.6 329.872 2983.6 420.576C2983.6 519.408 3062.82 561.78 3120.69 592.773C3178.45 623.766 3232.64 653.567 3232.64 715.229C3234.27 763.127 3196.66 803.332 3148.65 804.849C3146.7 804.957 3144.75 804.957 3142.69 804.849C3086.01 804.849 3045.16 757.167 3043.53 688.895V685.211H2960.73V689.112C2963.44 809.076 3033.13 883.524 3142.58 883.524C3233.4 889.485 3311.75 820.779 3317.71 729.967C3318.04 723.681 3318.15 717.288 3317.82 711.002C3317.82 600.142 3236.33 556.903 3164.37 518.866Z" fill="white"/>
<path d="M2818.55 685.319C2819.31 720.756 2807.6 755.325 2785.5 783.067C2771.84 797.48 2752.66 805.499 2732.83 804.958C2664.55 804.958 2628.57 725.524 2628.57 575.109C2628.57 425.561 2665.85 343.093 2733.69 343.093C2752.23 342.66 2770 350.137 2782.79 363.466C2803.49 389.15 2814.54 421.226 2814.11 454.17H2897.99C2900.48 401.395 2882.92 349.704 2848.79 309.282C2819.31 279.698 2778.78 263.984 2737.05 265.827C2609.93 265.827 2540.03 375.387 2540.03 574.35C2540.03 773.314 2607.98 882.874 2731.31 882.874C2830.58 882.874 2892.68 809.509 2900.48 685.319H2818.55Z" fill="white"/>
<path d="M3427.82 819.154C3425.11 820.454 3422.18 820.996 3419.15 820.779H3408.1V804.632H3419.15C3422.18 804.416 3425.22 805.174 3427.82 806.583C3429.88 808.1 3430.96 810.593 3430.75 813.194C3431.07 815.578 3429.88 817.962 3427.71 819.154H3427.82ZM3443.43 824.139C3445.38 820.671 3446.35 816.77 3446.24 812.76C3446.57 807.233 3444.51 801.923 3440.72 798.022C3436.06 794.121 3430.1 792.279 3424.03 792.712H3392.38V856.107H3408.1V833.458H3420.02L3430.75 856.107H3448.41L3434.86 831.508C3438.55 830.099 3441.58 827.498 3443.43 824.139Z" fill="white"/>
<path d="M3459.46 842.886C3457.3 848.305 3454.05 853.181 3449.93 857.408C3446.03 861.526 3441.15 864.668 3435.84 866.727C3424.57 871.17 3412.11 871.17 3400.94 866.727C3395.63 864.668 3390.76 861.526 3386.75 857.408C3382.74 853.181 3379.49 848.305 3377.32 842.886C3372.66 830.966 3372.66 817.745 3377.32 805.825C3379.49 800.406 3382.74 795.53 3386.75 791.303C3390.76 787.294 3395.63 784.043 3400.94 781.984C3412.11 777.649 3424.57 777.649 3435.84 781.984C3441.15 784.043 3445.92 787.294 3449.93 791.303C3454.05 795.53 3457.3 800.406 3459.46 805.825C3464.12 817.745 3464.12 830.966 3459.46 842.886ZM3470.41 801.273C3467.59 794.554 3463.58 788.594 3458.38 783.501C3453.18 778.516 3447.11 774.615 3440.39 772.014C3425.98 766.487 3410.15 766.487 3395.74 772.014C3389.02 774.615 3382.95 778.516 3377.75 783.501C3372.55 788.594 3368.54 794.663 3365.72 801.273C3359.98 816.12 3359.98 832.591 3365.72 847.33C3368.54 854.048 3372.55 860.225 3377.75 865.319C3382.95 870.412 3389.02 874.422 3395.74 877.022C3410.15 882.549 3425.98 882.549 3440.39 877.022C3447.11 874.422 3453.29 870.412 3458.38 865.319C3463.58 860.225 3467.59 854.157 3470.41 847.33C3476.15 832.591 3476.15 816.12 3470.41 801.273Z" fill="white"/>
<mask id="mask1_129_650" style="mask-type:luminance" maskUnits="userSpaceOnUse" x="3393" y="84" width="680" height="360">
<path d="M3398.56 84.8521H3495.66V87.6696H3398.56V84.8521ZM3617.69 84.8521H3806.36V90.4872H3617.69V84.8521ZM3961.77 84.8521H4072.74V90.4872H3961.77V84.8521ZM3401.38 87.6696H3498.48V93.1964H3401.38V87.6696ZM3614.98 90.4872H3806.36V93.1964H3614.98V90.4872ZM3404.09 93.1964H3501.19V96.014H3404.09V93.1964ZM3614.98 93.1964H3809.18V96.014H3614.98V93.1964ZM3958.95 90.4872H4072.74V98.7232H3958.95V90.4872ZM3406.9 96.014H3504.01V101.541H3406.9V96.014ZM3612.16 96.014H3809.18V101.541H3612.16V96.014ZM3409.61 101.541H3506.71V104.358H3409.61V101.541ZM3609.45 101.541H3809.18V104.358H3609.45V101.541ZM3412.43 104.358H3506.71V107.067H3412.43V104.358ZM3606.63 104.358H3811.89V107.067H3606.63V104.358ZM3412.43 107.067H3509.53V109.885H3412.43V107.067ZM3606.63 107.067H3692.68V109.885H3606.63V107.067ZM3956.24 98.7232H4072.74V109.885H3956.24V98.7232ZM3415.25 109.885H3509.53V112.594H3415.25V109.885ZM3603.82 109.885H3692.68V112.594H3603.82V109.885ZM3695.39 107.067H3811.89V112.594H3695.39V107.067ZM3415.25 112.594H3512.35V115.412H3415.25V112.594ZM3603.82 112.594H3689.86V115.412H3603.82V112.594ZM3417.96 115.412H3515.06V118.229H3417.96V115.412ZM3953.43 109.885H4072.74V118.229H3953.43V109.885ZM3601.11 115.412H3687.05V120.939H3601.11V115.412ZM3420.78 118.229H3515.06V120.939H3420.78V118.229ZM3695.39 112.594H3814.71V120.939H3695.39V112.594ZM3420.78 120.939H3517.88V123.756H3420.78V120.939ZM3598.29 120.939H3684.34V126.465H3598.29V120.939ZM3423.48 123.756H3517.88V126.465H3423.48V123.756ZM3423.48 126.465H3520.59V129.283H3423.48V126.465ZM3595.58 126.465H3681.52V129.283H3595.58V126.465ZM3950.61 118.229H4072.74V129.283H3950.61V118.229ZM3695.39 120.939H3817.53V129.283H3695.39V120.939ZM3426.3 129.283H3523.4V132.101H3426.3V129.283ZM3592.76 129.283H3678.81V134.81H3592.76V129.283ZM3429.12 132.101H3523.4V134.81H3429.12V132.101ZM3429.12 134.81H3526.22V137.627H3429.12V134.81ZM3947.9 129.283H4072.74V137.627H3947.9V129.283ZM3431.83 137.627H3526.22V140.336H3431.83V137.627ZM3589.94 134.81H3675.99V140.336H3589.94V134.81ZM3695.39 129.283H3820.24V140.336H3695.39V129.283ZM3434.65 140.336H3528.93V143.154H3434.65V140.336ZM3587.24 140.336H3673.17V143.154H3587.24V140.336ZM3434.65 143.154H3531.75V145.972H3434.65V143.154ZM3587.24 143.154H3670.47V145.972H3587.24V143.154ZM3584.42 145.972H3670.47V148.681H3584.42V145.972ZM3945.08 137.627H4072.74V148.681H3945.08V137.627ZM3437.36 145.972H3531.75V148.681H3437.36V145.972ZM3695.39 140.336H3823.05V148.681H3695.39V140.336ZM3437.36 148.681H3534.46V151.498H3437.36V148.681ZM3440.17 151.498H3534.46V154.208H3440.17V151.498ZM3581.71 148.681H3667.65V154.208H3581.71V148.681ZM3942.37 148.681H4072.74V157.025H3942.37V148.681ZM3442.99 154.208H3537.28V157.025H3442.99V154.208ZM3578.89 154.208H3664.94V157.025H3578.89V154.208ZM3695.39 148.681H3825.76V157.025H3695.39V148.681ZM3442.99 157.025H3540.09V159.843H3442.99V157.025ZM3578.89 157.025H3662.12V159.843H3578.89V157.025ZM3445.7 159.843H3540.09V162.552H3445.7V159.843ZM3576.07 159.843H3662.12V162.552H3576.07V159.843ZM3576.07 162.552H3659.3V165.369H3576.07V162.552ZM3448.52 162.552H3542.8V168.079H3448.52V162.552ZM3573.36 165.369H3659.3V168.079H3573.36V165.369ZM3939.55 157.025H4072.74V168.079H3939.55V157.025ZM3695.39 157.025H3828.58V168.079H3695.39V157.025ZM3451.23 168.079H3545.62V170.896H3451.23V168.079ZM3570.55 168.079H3656.59V170.896H3570.55V168.079ZM3451.23 170.896H3548.33V173.714H3451.23V170.896ZM3570.55 170.896H3653.78V173.714H3570.55V170.896ZM3454.05 173.714H3548.33V176.423H3454.05V173.714ZM3936.74 168.079H4072.74V176.423H3936.74V168.079ZM3567.84 173.714H3653.78V176.423H3567.84V173.714ZM3695.39 168.079H3831.4V176.423H3695.39V168.079ZM3567.84 176.423H3651.07V179.241H3567.84V176.423ZM3456.86 176.423H3551.15V181.95H3456.86V176.423ZM3565.02 179.241H3651.07V181.95H3565.02V179.241ZM3565.02 181.95H3648.25V184.767H3565.02V181.95ZM3459.57 181.95H3553.97V184.767H3459.57V181.95ZM3695.39 176.423H3834.11V184.767H3695.39V176.423ZM3459.57 184.767H3556.67V187.585H3459.57V184.767ZM3934.03 176.423H4072.74V187.585H3934.03V176.423ZM3462.39 187.585H3556.67V190.294H3462.39V187.585ZM3562.2 184.767H3645.43V190.294H3562.2V184.767ZM3465.1 190.294H3642.72V195.821H3465.1V190.294ZM3931.21 187.585H4072.74V195.821H3931.21V187.585ZM3695.39 184.767H3836.93V195.821H3695.39V184.767ZM3467.92 195.821H3639.9V198.638H3467.92V195.821ZM3470.74 198.638H3637.2V204.165H3470.74V198.638ZM3695.39 195.821H3839.64V204.165H3695.39V195.821ZM3928.5 195.821H4072.74V206.983H3928.5V195.821ZM3473.44 204.165H3634.38V209.692H3473.44V204.165ZM3476.26 209.692H3631.56V212.51H3476.26V209.692ZM3695.39 204.165H3842.45V212.51H3695.39V204.165ZM3695.39 212.51H3845.27V215.327H3695.39V212.51ZM3478.97 212.51H3628.85V218.036H3478.97V212.51ZM3925.68 206.983H4072.74V218.036H3925.68V206.983ZM3773.09 215.327H3845.27V220.854H3773.09V215.327ZM3481.79 218.036H3626.03V223.563H3481.79V218.036ZM3922.87 218.036H4072.74V223.563H3922.87V218.036ZM3484.61 223.563H3623.32V226.381H3484.61V223.563ZM3922.87 223.563H3989.51V226.381H3922.87V223.563ZM3773.09 220.854H3847.98V229.198H3773.09V220.854ZM3487.32 226.381H3620.51V231.907H3487.32V226.381ZM3775.91 229.198H3847.98V231.907H3775.91V229.198ZM3490.13 231.907H3617.69V234.725H3490.13V231.907ZM3920.16 226.381H3989.51V237.434H3920.16V226.381ZM3492.84 234.725H3617.69V237.434H3492.84V234.725ZM3492.84 237.434H3614.98V240.252H3492.84V237.434ZM3775.91 231.907H3850.8V240.252H3775.91V231.907ZM3495.66 240.252H3612.16V245.779H3495.66V240.252ZM3917.34 237.434H3986.7V245.779H3917.34V237.434ZM3498.48 245.779H3609.45V248.596H3498.48V245.779ZM3778.62 240.252H3853.51V248.596H3778.62V240.252ZM3914.63 245.779H3986.7V248.596H3914.63V245.779ZM3778.62 248.596H3856.32V251.305H3778.62V248.596ZM3501.19 248.596H3609.45V251.305H3501.19V248.596ZM3501.19 251.305H3606.63V254.123H3501.19V251.305ZM3504.01 254.123H3603.82V256.94H3504.01V254.123ZM3914.63 248.596H3983.99V256.94H3914.63V248.596ZM3506.71 256.94H3603.82V259.65H3506.71V256.94ZM3781.44 251.305H3856.32V259.65H3781.44V251.305ZM3911.81 256.94H3983.99V259.65H3911.81V256.94ZM3781.44 259.65H3859.14V262.467H3781.44V259.65ZM3504.01 259.65H3603.82V265.176H3504.01V259.65ZM3911.81 259.65H3981.17V265.176H3911.81V259.65ZM3501.19 265.176H3606.63V267.994H3501.19V265.176ZM3784.15 262.467H3859.14V267.994H3784.15V262.467ZM3908.99 265.176H3981.17V267.994H3908.99V265.176ZM3501.19 267.994H3609.45V270.812H3501.19V267.994ZM3784.15 267.994H3861.85V270.812H3784.15V267.994ZM3498.48 270.812H3609.45V273.521H3498.48V270.812ZM3908.99 267.994H3978.35V276.338H3908.99V267.994ZM3786.97 270.812H3861.85V276.338H3786.97V270.812ZM3495.66 273.521H3612.16V279.048H3495.66V273.521ZM3786.97 276.338H3864.67V279.048H3786.97V276.338ZM3906.28 276.338H3978.35V279.048H3906.28V276.338ZM3492.84 279.048H3614.98V281.865H3492.84V279.048ZM3492.84 281.865H3617.69V284.683H3492.84V281.865ZM3906.28 279.048H3975.64V284.683H3906.28V279.048ZM3490.13 284.683H3617.69V287.392H3490.13V284.683ZM3789.78 279.048H3864.67V287.392H3789.78V279.048ZM3903.47 284.683H3975.64V287.392H3903.47V284.683ZM3789.78 287.392H3867.38V290.209H3789.78V287.392ZM3487.32 287.392H3620.51V292.919H3487.32V287.392ZM3903.47 287.392H3972.82V295.736H3903.47V287.392ZM3484.61 292.919H3623.32V295.736H3484.61V292.919ZM3792.49 290.209H3867.38V295.736H3792.49V290.209ZM3484.61 295.736H3626.03V298.554H3484.61V295.736ZM3792.49 295.736H3870.2V298.554H3792.49V295.736ZM3481.79 298.554H3626.03V301.263H3481.79V298.554ZM3900.76 295.736H3970.12V304.081H3900.76V295.736ZM3478.97 301.263H3628.85V304.081H3478.97V301.263ZM3795.31 298.554H3870.2V304.081H3795.31V298.554ZM3478.97 304.081H3631.56V306.79H3478.97V304.081ZM3795.31 304.081H3873.01V306.79H3795.31V304.081ZM3476.26 306.79H3631.56V309.607H3476.26V306.79ZM3798.02 306.79H3873.01V312.425H3798.02V306.79ZM3897.94 304.081H3967.3V312.425H3897.94V304.081ZM3473.44 309.607H3634.38V315.134H3473.44V309.607ZM3798.02 312.425H3875.72V315.134H3798.02V312.425ZM3897.94 312.425H3964.48V315.134H3897.94V312.425ZM3470.74 315.134H3637.2V317.952H3470.74V315.134ZM3470.74 317.952H3639.9V320.661H3470.74V317.952ZM3895.12 315.134H3964.48V320.661H3895.12V315.134ZM3467.92 320.661H3639.9V323.478H3467.92V320.661ZM3800.84 315.134H3875.72V323.478H3800.84V315.134ZM3895.12 320.661H3961.77V323.478H3895.12V320.661ZM3465.1 323.478H3642.72V329.005H3465.1V323.478ZM3892.41 323.478H3961.77V329.005H3892.41V323.478ZM3803.66 323.478H3878.54V331.823H3803.66V323.478ZM3462.39 329.005H3645.43V331.823H3462.39V329.005ZM3462.39 331.823H3548.33V334.532H3462.39V331.823ZM3553.97 331.823H3648.25V334.532H3553.97V331.823ZM3892.41 329.005H3958.95V334.532H3892.41V329.005ZM3459.57 334.532H3548.33V337.35H3459.57V334.532ZM3556.67 334.532H3648.25V337.35H3556.67V334.532ZM3889.59 334.532H3958.95V337.35H3889.59V334.532ZM3556.67 337.35H3651.07V340.167H3556.67V337.35ZM3806.36 331.823H3881.25V340.167H3806.36V331.823ZM3456.86 337.35H3545.62V340.167H3456.86V337.35ZM3456.86 340.167H3542.8V342.876H3456.86V340.167ZM3559.49 340.167H3653.78V345.694H3559.49V340.167ZM3889.59 337.35H3956.24V345.694H3889.59V337.35ZM3454.05 342.876H3542.8V345.694H3454.05V342.876ZM3454.05 345.694H3540.09V348.403H3454.05V345.694ZM3562.2 345.694H3656.59V348.403H3562.2V345.694ZM3809.18 340.167H3884.07V348.403H3809.18V340.167ZM3451.23 348.403H3540.09V351.221H3451.23V348.403ZM3886.89 345.694H3953.43V351.221H3886.89V345.694ZM3565.02 348.403H3656.59V351.221H3565.02V348.403ZM3811.89 348.403H3884.07V351.221H3811.89V348.403ZM3565.02 351.221H3659.3V354.038H3565.02V351.221ZM3448.52 351.221H3537.28V354.038H3448.52V351.221ZM3448.52 354.038H3534.46V356.747H3448.52V354.038ZM3811.89 351.221H3953.43V356.747H3811.89V351.221ZM3567.84 354.038H3662.12V359.565H3567.84V354.038ZM3445.7 356.747H3534.46V359.565H3445.7V356.747ZM3445.7 359.565H3531.75V362.274H3445.7V359.565ZM3570.55 359.565H3664.94V362.274H3570.55V359.565ZM3442.99 362.274H3531.75V365.092H3442.99V362.274ZM3573.36 362.274H3664.94V365.092H3573.36V362.274ZM3814.71 356.747H3950.61V365.092H3814.71V356.747ZM3573.36 365.092H3667.65V367.909H3573.36V365.092ZM3814.71 365.092H3947.9V367.909H3814.71V365.092ZM3440.17 365.092H3528.93V367.909H3440.17V365.092ZM3440.17 367.909H3526.22V370.619H3440.17V367.909ZM3576.07 367.909H3670.47V373.436H3576.07V367.909ZM3437.36 370.619H3526.22V373.436H3437.36V370.619ZM3817.53 367.909H3947.9V373.436H3817.53V367.909ZM3437.36 373.436H3523.4V376.145H3437.36V373.436ZM3578.89 373.436H3673.17V376.145H3578.89V373.436ZM3817.53 373.436H3945.08V376.145H3817.53V373.436ZM3434.65 376.145H3523.4V378.963H3434.65V376.145ZM3581.71 376.145H3675.99V381.78H3581.71V376.145ZM3820.24 376.145H3945.08V381.78H3820.24V376.145ZM3431.83 378.963H3520.59V384.49H3431.83V378.963ZM3820.24 381.78H3942.37V384.49H3820.24V381.78ZM3584.42 381.78H3678.81V387.307H3584.42V381.78ZM3429.12 384.49H3517.88V387.307H3429.12V384.49ZM3429.12 387.307H3515.06V390.016H3429.12V387.307ZM3587.24 387.307H3681.52V390.016H3587.24V387.307ZM3823.05 384.49H3942.37V390.016H3823.05V384.49ZM3426.3 390.016H3515.06V392.834H3426.3V390.016ZM3823.05 390.016H3939.55V392.834H3823.05V390.016ZM3589.94 390.016H3684.34V395.652H3589.94V390.016ZM3423.48 392.834H3512.35V398.361H3423.48V392.834ZM3592.76 395.652H3687.05V398.361H3592.76V395.652ZM3825.76 392.834H3939.55V398.361H3825.76V392.834ZM3825.76 398.361H3936.74V401.178H3825.76V398.361ZM3420.78 398.361H3509.53V401.178H3420.78V398.361ZM3595.58 398.361H3687.05V401.178H3595.58V398.361ZM3420.78 401.178H3506.71V403.888H3420.78V401.178ZM3595.58 401.178H3689.86V403.888H3595.58V401.178ZM3417.96 403.888H3506.71V406.705H3417.96V403.888ZM3828.58 401.178H3936.74V406.705H3828.58V401.178ZM3598.29 403.888H3692.68V409.523H3598.29V403.888ZM3695.39 215.327H3770.28V409.523H3695.39V215.327ZM3828.58 406.705H3934.03V409.523H3828.58V406.705ZM3415.25 406.705H3504.01V412.232H3415.25V406.705ZM3601.11 409.523H3770.28V412.232H3601.11V409.523ZM3412.43 412.232H3501.19V415.049H3412.43V412.232ZM3831.4 409.523H3934.03V415.049H3831.4V409.523ZM3603.82 412.232H3770.28V417.759H3603.82V412.232ZM3831.4 415.049H3931.21V417.759H3831.4V415.049ZM3409.61 415.049H3498.48V420.576H3409.61V415.049ZM3606.63 417.759H3770.28V423.394H3606.63V417.759ZM3834.11 417.759H3931.21V423.394H3834.11V417.759ZM3406.9 420.576H3495.66V426.103H3406.9V420.576ZM3609.45 423.394H3770.28V426.103H3609.45V423.394ZM3834.11 423.394H3928.5V426.103H3834.11V423.394ZM3404.09 426.103H3492.84V428.921H3404.09V426.103ZM3612.16 426.103H3770.28V431.63H3612.16V426.103ZM3401.38 428.921H3492.84V431.63H3401.38V428.921ZM3836.93 426.103H3928.5V431.63H3836.93V426.103ZM3401.38 431.63H3490.13V434.447H3401.38V431.63ZM3836.93 431.63H3925.68V434.447H3836.93V431.63ZM3614.98 431.63H3770.28V437.265H3614.98V431.63ZM3398.56 434.447H3487.32V439.974H3398.56V434.447ZM3617.69 437.265H3770.28V439.974H3617.69V437.265ZM3839.64 434.447H3925.68V439.974H3839.64V434.447ZM3395.74 439.974H3484.61V442.792H3395.74V439.974ZM3839.64 439.974H3922.87V442.792H3839.64V439.974ZM3620.51 439.974H3770.28V443.875H3620.51V439.974ZM3393.03 442.792H3484.61V443.875H3393.03V442.792ZM3842.45 442.792H3922.87V443.875H3842.45V442.792ZM3992.22 223.563H4072.74V443.875H3992.22V223.563Z" fill="white"/>
</mask>
<g mask="url(#mask1_129_650)">
<mask id="mask2_129_650" style="mask-type:luminance" maskUnits="userSpaceOnUse" x="3390" y="85" width="684" height="370">
<path d="M3600.02 259.758L3696.26 100.024V416.242L3600.02 259.758ZM3963.18 85.2856L3886.56 356.639H3885.59L3803.33 85.2856H3621.48L3559.17 196.038L3493.28 85.2856H3400.73L3508.34 259.325L3390.32 454.17H3475.4L3551.15 325.212L3629.5 454.17H3769.08V198.422H3770.06C3772.01 209.15 3773.74 218.362 3775.59 225.947C3777.32 233.533 3778.95 240.577 3780.57 247.079C3782.2 253.581 3783.93 259.758 3785.77 265.61C3787.62 271.462 3789.57 277.856 3791.52 284.791L3846.25 454.062H3917.99L3973.26 284.791C3977.27 271.245 3981.06 258.024 3984.53 245.454C3988.43 231.257 3991.36 217.061 3993.74 202.54H3994.61V454.17H4073.07V85.1772L3963.18 85.2856Z" fill="white"/>
</mask>
<g mask="url(#mask2_129_650)">
<mask id="mask3_129_650" style="mask-type:luminance" maskUnits="userSpaceOnUse" x="3060" y="-92" width="1343" height="726">
<path d="M3864.02 -66.2128L3095.98 243.611L3634.49 633.411L4402.41 323.587L3864.02 -66.2128ZM3828.47 -91.896L3060.55 217.928L3095.98 243.611L3864.02 -66.2128L3828.47 -91.896Z" fill="white"/>
</mask>
<g mask="url(#mask3_129_650)">
<rect width="682.486" height="371.746" transform="matrix(1 0 0 -1 3390.24 456.637)" fill="white"/>
</g>
</g>
</g>
</g>
<defs>
<clipPath id="clip0_129_650">
<rect width="4073" height="1300" fill="white"/>
</clipPath>
</defs>
</svg>
